<svg width="98" height="37" viewBox="0 0 98 37" fill="none" xmlns="http://www.w3.org/2000/svg">
<path d="M86.2442 5.4057C80.2436 5.4057 75.3606 10.3154 75.3606 16.351C75.3606 22.3866 80.2436 27.2962 86.2442 27.2962C92.2434 27.2962 97.125 22.3866 97.125 16.351C97.125 10.3154 92.2434 5.4057 86.2442 5.4057ZM86.2442 22.109C83.0883 22.109 80.518 19.5231 80.518 16.351C80.518 13.1774 83.0883 10.593 86.2442 10.593C89.3972 10.593 91.9689 13.1774 91.9689 16.351C91.9689 19.5245 89.3986 22.109 86.2428 22.109H86.2442ZM54.1958 14.1343L52.2927 13.1789C51.4664 12.7674 50.9484 12.4489 50.7401 12.2136C50.5415 12.005 50.4284 11.7294 50.4234 11.4413C50.4234 11.0721 50.5895 10.7607 50.916 10.5183C51.2398 10.2646 51.7001 10.1491 52.2842 10.1491C53.3526 10.1491 54.5364 10.7945 55.8398 12.0952L59.052 8.86388C58.2627 7.78787 57.2306 6.91389 56.0397 6.31322C54.8645 5.72125 53.566 5.41606 52.2504 5.42261C50.2896 5.42261 48.6709 6.00179 47.4097 7.16861C46.1499 8.33543 45.5164 9.73758 45.5164 11.3821C45.5164 13.9328 47.1845 16.0579 50.5317 17.7447L52.2842 18.6254C53.7946 19.3906 54.5462 20.1699 54.5462 20.976C54.5462 21.4128 54.3365 21.7905 53.9199 22.1259C53.5032 22.4627 52.9514 22.6219 52.2673 22.6219C51.6339 22.6219 50.9076 22.4035 50.0898 21.9596C49.2749 21.5228 48.5499 20.9357 47.953 20.2291L44.7577 23.7295C46.5595 26.097 48.9623 27.2892 51.983 27.2892C54.2535 27.2892 56.0651 26.6677 57.4079 25.4333C58.7592 24.2002 59.4349 22.6557 59.4349 20.8083C59.4349 19.423 59.0604 18.2069 58.3172 17.1739C57.567 16.141 56.1903 15.1348 54.1958 14.1357V14.1343ZM21.8827 24.9119V5.84114H16.7168V7.11788C14.9761 5.9978 12.95 5.40337 10.8808 5.4057C4.88159 5.4057 0 10.3154 0 16.351C0 22.3866 4.88159 27.2962 10.8822 27.2962C12.9266 27.2993 14.9297 26.7201 16.6576 25.6263C16.6576 25.794 16.6492 25.9448 16.6492 26.0463C16.6492 29.2184 14.0789 31.8043 10.9245 31.8043C9.85188 31.8018 8.80182 31.496 7.89528 30.9221L5.34047 35.4217C7.02511 36.4505 8.95957 36.9964 10.9329 37C16.9335 37 21.8827 32.0889 21.8827 26.0533C21.8827 25.8194 21.8982 25.1303 21.8827 24.9119ZM10.8822 22.1076C7.72918 22.1076 5.15748 19.5231 5.15748 16.351C5.15748 13.1774 7.72777 10.593 10.8822 10.593C14.0367 10.593 16.607 13.1774 16.607 16.351C16.607 19.5231 14.0367 22.109 10.8822 22.109V22.1076ZM42.4605 5.83409H37.2693V16.2396C37.2777 17.7179 37.2777 20.27 36.1938 21.3607C35.6758 21.8807 35.1086 22.3513 33.9149 22.3513C32.7128 22.3513 32.1456 21.8807 31.629 21.3607C30.5437 20.2685 30.5521 17.7094 30.5592 16.2396V5.83409H25.3693V16.2086C25.3524 18.3478 25.3271 22.3189 27.9312 24.9541C29.4584 26.4986 31.2785 27.2878 33.9065 27.2878C36.5359 27.2878 38.3545 26.5071 39.8818 24.9541C42.4859 22.3189 42.4605 18.3393 42.4436 16.2086L42.4605 5.83269V5.83409ZM71.8781 21.1775C71.4615 21.496 70.4508 22.202 69.3078 22.0427C68.3732 21.9159 67.6145 21.2282 67.4977 18.9284V10.2999H73.5982V5.81718H67.4977V0H62.3233V1.14145H62.3148V18.2492C62.3148 20.9689 62.9989 27.2878 69.2994 27.2878C72.4876 27.2385 74.4231 25.5009 75.2339 24.8217L75.3423 24.7371L72.2371 20.8928C72.2286 20.8999 72.0119 21.076 71.8781 21.1775Z" fill="#89898B"/>
</svg>
