<svg width="114" height="48" viewBox="0 0 114 48" fill="none" xmlns="http://www.w3.org/2000/svg">
<path d="M12.3085 13.1064V22.1942H3.96242V13.1064H0V34.7997H3.96242V26.0071H12.3085V34.7997H16.2709V13.1064H12.3085Z" fill="#89898B"/>
<path d="M28.9522 27.7869C28.9522 28.6563 28.6068 29.4901 27.9921 30.1049C27.3773 30.7196 26.5435 31.065 25.6741 31.065C24.8047 31.065 23.971 30.7196 23.3562 30.1049C22.7414 29.4901 22.3961 28.6563 22.3961 27.7869V18.4953H18.6375V27.7869C18.6375 29.6513 19.3781 31.4394 20.6965 32.7578C22.0149 34.0761 23.8029 34.8167 25.6673 34.8167C27.5318 34.8167 29.3198 34.0761 30.6382 32.7578C31.9565 31.4394 32.6972 29.6513 32.6972 27.7869V18.4953H28.9522V27.7869Z" fill="#89898B"/>
<path d="M56.8007 19.4529C56.8007 17.5484 58.0606 16.9446 59.441 16.9446C60.5534 16.9446 62.0231 17.7911 62.9841 18.8181L65.4458 15.9176C64.2169 14.2558 61.7241 13.1065 59.6837 13.1065C55.6067 13.1065 52.6577 15.4944 52.6577 19.4529C52.6577 26.7973 61.6348 24.4676 61.6348 28.5775C61.6348 29.8453 60.4039 30.9655 58.9945 30.9655C56.7715 30.9655 56.0513 29.8783 55.0301 28.729L52.2985 31.5693C54.0458 33.7145 56.2008 34.8036 58.7828 34.8036C62.656 34.8036 65.7719 32.3866 65.7719 28.6086C65.7719 20.4547 56.7948 22.9882 56.7948 19.4529" fill="#89898B"/>
<path d="M112.337 31.3341C110.116 31.3341 109.485 30.3731 109.485 28.9015V22.3881H112.937V19.0877H109.485V14.7331L105.674 16.4435V29.7111C105.674 33.1047 108.015 34.815 111.226 34.815C111.73 34.8242 112.233 34.7839 112.729 34.6947L113.659 31.272C113.239 31.3011 112.758 31.3302 112.337 31.3302" fill="#89898B"/>
<path d="M43.2594 18.6049C41.3976 18.6049 40.0988 19.1446 38.8427 20.3774V13.2369H35.0783V26.4715C35.0783 31.4259 38.6602 34.8195 42.6847 34.8195C47.15 34.8195 51.0774 31.3658 51.0774 26.7141C51.0774 22.1208 47.4625 18.6068 43.2594 18.6068V18.6049ZM43.2361 31.0318C42.3913 31.0318 41.5656 30.7813 40.8632 30.312C40.1608 29.8427 39.6134 29.1757 39.2901 28.3952C38.9668 27.6148 38.8822 26.756 39.0471 25.9275C39.2119 25.099 39.6186 24.3379 40.216 23.7406C40.8133 23.1433 41.5743 22.7365 42.4028 22.5717C43.2313 22.4069 44.0901 22.4915 44.8706 22.8148C45.651 23.138 46.3181 23.6855 46.7874 24.3878C47.2567 25.0902 47.5072 25.916 47.5072 26.7607C47.5072 27.8935 47.0572 28.9799 46.2562 29.7809C45.4552 30.5818 44.3688 31.0318 43.2361 31.0318Z" fill="#89898B"/>
<path d="M84.1336 26.5153C84.1336 21.8559 80.2139 18.4099 75.7409 18.4099C71.7164 18.4099 68.1345 21.8035 68.1345 26.758V40.0003H71.8989V32.8501C73.153 34.0809 74.4538 34.6226 76.3136 34.6226C80.5168 34.6226 84.1317 31.1106 84.1317 26.5153H84.1336ZM80.5692 26.4687C80.5692 27.3134 80.3187 28.1392 79.8494 28.8416C79.3801 29.544 78.713 30.0914 77.9326 30.4147C77.1521 30.7379 76.2934 30.8225 75.4648 30.6577C74.6363 30.4929 73.8753 30.0861 73.278 29.4888C72.6806 28.8915 72.2739 28.1304 72.1091 27.3019C71.9443 26.4734 72.0288 25.6146 72.3521 24.8342C72.6754 24.0538 73.2228 23.3867 73.9252 22.9174C74.6276 22.4481 75.4533 22.1976 76.2981 22.1976C77.4309 22.1976 78.5172 22.6476 79.3182 23.4486C80.1192 24.2495 80.5692 25.3359 80.5692 26.4687Z" fill="#89898B"/>
<path d="M96.2563 18.3496V14.6066C96.751 14.3756 97.1698 14.0088 97.464 13.5489C97.7583 13.089 97.9157 12.555 97.9182 12.009V11.9216C97.9161 11.1587 97.6121 10.4276 97.0726 9.88807C96.5331 9.34858 95.802 9.04459 95.0391 9.04254H94.9517C94.1887 9.04459 93.4576 9.34858 92.9181 9.88807C92.3786 10.4276 92.0746 11.1587 92.0726 11.9216V12.009C92.075 12.555 92.2325 13.089 92.5267 13.5489C92.8209 14.0088 93.2398 14.3756 93.7344 14.6066V18.3496C92.3123 18.5671 90.9728 19.1565 89.8516 20.0581L79.5738 12.0614C79.647 11.7976 79.6861 11.5256 79.6903 11.2519C79.6911 10.6095 79.5013 9.98128 79.1451 9.44673C78.7888 8.91217 78.282 8.49527 77.6888 8.24873C77.0956 8.00219 76.4427 7.93708 75.8125 8.06166C75.1823 8.18623 74.6032 8.49487 74.1484 8.94857C73.6936 9.40226 73.3836 9.98063 73.2575 10.6105C73.1314 11.2404 73.195 11.8936 73.4401 12.4873C73.6852 13.0811 74.1009 13.5889 74.6346 13.9464C75.1683 14.3039 75.796 14.4952 76.4384 14.496C77.0027 14.4939 77.5564 14.3432 78.044 14.0591L88.149 21.9257C87.2388 23.2989 86.764 24.9146 86.7865 26.5619C86.809 28.2091 87.3278 29.8113 88.2752 31.1591L85.2 34.2343C84.9531 34.1557 84.6961 34.1138 84.437 34.11C83.9091 34.11 83.393 34.2666 82.954 34.5599C82.515 34.8532 82.1728 35.2701 81.9708 35.7579C81.7687 36.2457 81.7159 36.7824 81.8189 37.3002C81.9219 37.818 82.1761 38.2937 82.5494 38.667C82.9228 39.0403 83.3984 39.2946 83.9162 39.3976C84.4341 39.5006 84.9708 39.4477 85.4586 39.2457C85.9464 39.0436 86.3633 38.7015 86.6566 38.2625C86.9499 37.8235 87.1065 37.3074 87.1065 36.7794C87.1029 36.5204 87.061 36.2633 86.9822 36.0165L90.0244 32.9743C91.0175 33.7328 92.1707 34.2544 93.3961 34.4993C94.6215 34.7441 95.8866 34.7058 97.0949 34.3871C98.3032 34.0685 99.4228 33.478 100.368 32.6607C101.313 31.8434 102.059 30.8209 102.549 29.6713C103.039 28.5217 103.26 27.2754 103.195 26.0275C103.129 24.7796 102.78 23.5631 102.173 22.4709C101.566 21.3786 100.717 20.4395 99.6917 19.7253C98.6663 19.0111 97.4913 18.5405 96.2563 18.3496ZM94.9963 30.6621C94.1639 30.6621 93.3501 30.4152 92.658 29.9527C91.9658 29.4902 91.4263 28.8329 91.1078 28.0638C90.7892 27.2947 90.7058 26.4484 90.8682 25.632C91.0307 24.8155 91.4315 24.0655 92.0202 23.4769C92.6088 22.8883 93.3588 22.4874 94.1752 22.325C94.9917 22.1626 95.838 22.2459 96.607 22.5645C97.3761 22.8831 98.0335 23.4225 98.496 24.1147C98.9585 24.8069 99.2053 25.6206 99.2053 26.4531C99.2053 27.5694 98.7619 28.6399 97.9725 29.4293C97.1832 30.2186 96.1126 30.6621 94.9963 30.6621Z" fill="#89898B"/>
</svg>
