<svg width="15" height="14" viewBox="0 0 15 14" fill="none" xmlns="http://www.w3.org/2000/svg">
<path d="M0.0761719 1.68554C0.0761719 1.21933 0.239898 0.834715 0.567336 0.531694C0.894774 0.228659 1.32046 0.0771484 1.84436 0.0771484C2.35892 0.0771484 2.77523 0.226323 3.09332 0.524701C3.42076 0.832393 3.58449 1.23332 3.58449 1.7275C3.58449 2.17505 3.42545 2.548 3.10736 2.84638C2.77992 3.15407 2.34956 3.30792 1.8163 3.30792H1.80226C1.28771 3.30792 0.871395 3.15407 0.553303 2.84638C0.235211 2.53869 0.0761719 2.15174 0.0761719 1.68554ZM0.258604 13.9233V4.58065H3.37399V13.9233H0.258604ZM5.10008 13.9233H8.21546V8.70652C8.21546 8.38017 8.25289 8.12842 8.32773 7.95127C8.4587 7.63425 8.65751 7.36618 8.92414 7.14708C9.19078 6.92796 9.52523 6.81841 9.92752 6.81841C10.9753 6.81841 11.4992 7.52237 11.4992 8.9303V13.9233H14.6146V8.56666C14.6146 7.1867 14.2872 6.14009 13.6323 5.4268C12.9774 4.71351 12.112 4.35687 11.0362 4.35687C9.82929 4.35687 8.88906 4.87435 8.21546 5.90932V5.93729H8.20143L8.21546 5.90932V4.58065H5.10008C5.11879 4.87901 5.12815 5.80674 5.12815 7.36386C5.12815 8.92097 5.11879 11.1074 5.10008 13.9233Z" fill="#0B0D21"/>
</svg>
