<svg width="18" height="14" viewBox="0 0 18 14" fill="none" xmlns="http://www.w3.org/2000/svg">
<path d="M18 1.71632C17.3306 1.99431 16.6174 2.17857 15.8737 2.26804C16.6388 1.83561 17.2226 1.15608 17.4971 0.33703C16.7839 0.739634 15.9964 1.02401 15.1571 1.18271C14.4799 0.499989 13.5146 0.0771484 12.4616 0.0771484C10.4186 0.0771484 8.77387 1.64709 8.77387 3.5717C8.77387 3.84863 8.79862 4.1149 8.85938 4.36839C5.7915 4.22673 3.07687 2.83466 1.25325 0.714072C0.934875 1.23703 0.748125 1.83561 0.748125 2.47999C0.748125 3.68993 1.40625 4.76247 2.38725 5.38342C1.79437 5.37277 1.21275 5.20981 0.72 4.95312C0.72 4.96378 0.72 4.97762 0.72 4.99147C0.72 6.68922 1.99912 8.0994 3.6765 8.42425C3.37612 8.502 3.04875 8.53928 2.709 8.53928C2.47275 8.53928 2.23425 8.5265 2.01038 8.47963C2.4885 9.86318 3.84525 10.8803 5.4585 10.9134C4.203 11.8432 2.60888 12.4034 0.883125 12.4034C0.5805 12.4034 0.29025 12.3906 0 12.3555C1.63462 13.3535 3.57188 13.9233 5.661 13.9233C12.4515 13.9233 16.164 8.59786 16.164 3.98176C16.164 3.82733 16.1584 3.67821 16.1505 3.53017C16.8829 3.0381 17.4982 2.42354 18 1.71632Z" fill="white"/>
</svg>
